<?xml version="1.0" standalone="no"?>
<!DOCTYPE svg PUBLIC "-//W3C//DTD SVG 20010904//EN"
 "http://www.w3.org/TR/2001/REC-SVG-20010904/DTD/svg10.dtd">
<svg version="1.0" xmlns="http://www.w3.org/2000/svg"
 width="305.000000pt" height="305.000000pt" viewBox="0 0 305.000000 305.000000"
 preserveAspectRatio="xMidYMid meet">
<metadata>
Created by potrace 1.11, written by Peter Selinger 2001-2013
</metadata>
<g transform="translate(0.000000,305.000000) scale(0.100000,-0.100000)"
fill="#000000" stroke="none">
<path d="M1380 3037 c-3 -3 -27 -7 -55 -10 -142 -15 -327 -70 -467 -139 -513
-250 -846 -770 -851 -1328 -1 -124 7 -273 17 -301 3 -8 7 -25 10 -39 30 -177
145 -436 263 -595 127 -169 302 -324 487 -429 112 -64 325 -142 436 -161 19
-3 42 -8 50 -10 86 -23 376 -23 490 0 14 2 48 9 75 15 28 6 59 12 70 14 114
23 398 154 488 226 7 5 39 30 72 56 111 87 226 210 311 336 167 245 256 531
258 828 1 180 -6 247 -43 391 -101 399 -345 727 -701 940 -116 70 -324 153
-430 172 -14 3 -36 8 -50 11 -14 3 -41 8 -60 12 -42 7 -364 17 -370 11z"/>
</g>
</svg>
